REM DIRINDEX 1\2\6,1\2\7,1\2\8,1\2\9,1\3\10,1\3\11,1\4\12,1\4\13,1\4\14,1\5\15,1\5\16,1\5\17
REM DIRNAME cjc029,folder01,folder02,folder03,folder04,folder05,folder06,folder07,folder08,folder09,folder10,folder11,folder12,folder13,folder14,folder15,folder16
TITLE ""
FILE "1400_3_sec09_0817_0832.mp3" MP3
  TRACK 01 AUDIO
    TITLE "0:"
    INDEX 01 00:00:00
  TRACK 02 AUDIO
    TITLE "17:cjc029_6069"
    INDEX 01 00:00:17
  TRACK 03 AUDIO
    TITLE "0:"
    INDEX 01 00:01:19
  TRACK 04 AUDIO
    TITLE "16:cjc029_6070"
    INDEX 01 00:01:22
  TRACK 05 AUDIO
    TITLE "0:"
    INDEX 01 00:02:16
  TRACK 06 AUDIO
    TITLE "17:cjc029_6071"
    INDEX 01 00:03:00
  TRACK 07 AUDIO
    TITLE "0:"
    INDEX 01 00:04:05
  TRACK 08 AUDIO
    TITLE "16:cjc029_6072"
    INDEX 01 00:04:11
  TRACK 09 AUDIO
    TITLE "0:"
    INDEX 01 00:05:10
  TRACK 10 AUDIO
    TITLE "17:cjc029_6073"
    INDEX 01 00:05:71
  TRACK 11 AUDIO
    TITLE "0:"
    INDEX 01 00:07:29
  TRACK 12 AUDIO
    TITLE "16:cjc029_6074"
    INDEX 01 00:07:33
  TRACK 13 AUDIO
    TITLE "0:"
    INDEX 01 00:08:46
  TRACK 14 AUDIO
    TITLE "17:cjc029_6075"
    INDEX 01 00:09:26
  TRACK 15 AUDIO
    TITLE "0:"
    INDEX 01 00:10:29
  TRACK 16 AUDIO
    TITLE "16:cjc029_6076"
    INDEX 01 00:10:33
  TRACK 17 AUDIO
    TITLE "0:"
    INDEX 01 00:11:52
  TRACK 18 AUDIO
    TITLE "17:cjc029_6077"
    INDEX 01 00:12:36
  TRACK 19 AUDIO
    TITLE "0:"
    INDEX 01 00:13:73
  TRACK 20 AUDIO
    TITLE "16:cjc029_6078"
    INDEX 01 00:14:04
  TRACK 21 AUDIO
    TITLE "0:"
    INDEX 01 00:15:19
  TRACK 22 AUDIO
    TITLE "17:cjc029_6079"
    INDEX 01 00:16:02
  TRACK 23 AUDIO
    TITLE "0:"
    INDEX 01 00:17:37
  TRACK 24 AUDIO
    TITLE "16:cjc029_6080"
    INDEX 01 00:17:43
  TRACK 25 AUDIO
    TITLE "0:"
    INDEX 01 00:18:58
  TRACK 26 AUDIO
    TITLE "17:cjc029_6081"
    INDEX 01 00:19:42
  TRACK 27 AUDIO
    TITLE "0:"
    INDEX 01 00:21:02
  TRACK 28 AUDIO
    TITLE "16:cjc029_6082"
    INDEX 01 00:21:08
  TRACK 29 AUDIO
    TITLE "0:"
    INDEX 01 00:22:19
  TRACK 30 AUDIO
    TITLE "17:cjc029_6083"
    INDEX 01 00:23:01
  TRACK 31 AUDIO
    TITLE "0:"
    INDEX 01 00:24:49
  TRACK 32 AUDIO
    TITLE "16:cjc029_6084"
    INDEX 01 00:24:57
  TRACK 33 AUDIO
    TITLE "0:"
    INDEX 01 00:25:58
  TRACK 34 AUDIO
    TITLE "17:cjc029_6085"
    INDEX 01 00:26:42
  TRACK 35 AUDIO
    TITLE "0:"
    INDEX 01 00:28:04
  TRACK 36 AUDIO
    TITLE "16:cjc029_6086"
    INDEX 01 00:28:12
  TRACK 37 AUDIO
    TITLE "0:"
    INDEX 01 00:29:19
  TRACK 38 AUDIO
    TITLE "17:cjc029_6087"
    INDEX 01 00:30:06
  TRACK 39 AUDIO
    TITLE "0:"
    INDEX 01 00:31:26
  TRACK 40 AUDIO
    TITLE "16:cjc029_6088"
    INDEX 01 00:31:33
  TRACK 41 AUDIO
    TITLE "0:"
    INDEX 01 00:32:31
  TRACK 42 AUDIO
    TITLE "17:cjc029_6089"
    INDEX 01 00:33:17
  TRACK 43 AUDIO
    TITLE "0:"
    INDEX 01 00:34:49
  TRACK 44 AUDIO
    TITLE "16:cjc029_6090"
    INDEX 01 00:34:55
  TRACK 45 AUDIO
    TITLE "0:"
    INDEX 01 00:35:59
  TRACK 46 AUDIO
    TITLE "17:cjc029_6091"
    INDEX 01 00:36:42
  TRACK 47 AUDIO
    TITLE "0:"
    INDEX 01 00:38:37
  TRACK 48 AUDIO
    TITLE "16:cjc029_6092"
    INDEX 01 00:38:45
  TRACK 49 AUDIO
    TITLE "0:"
    INDEX 01 00:39:47
  TRACK 50 AUDIO
    TITLE "17:cjc029_6093"
    INDEX 01 00:40:30
  TRACK 51 AUDIO
    TITLE "0:"
    INDEX 01 00:41:67
  TRACK 52 AUDIO
    TITLE "16:cjc029_6094"
    INDEX 01 00:41:71
  TRACK 53 AUDIO
    TITLE "0:"
    INDEX 01 00:42:70
  TRACK 54 AUDIO
    TITLE "17:cjc029_6095"
    INDEX 01 00:43:52
  TRACK 55 AUDIO
    TITLE "0:"
    INDEX 01 00:46:64
  TRACK 56 AUDIO
    TITLE "16:cjc029_6096"
    INDEX 01 00:46:68
  TRACK 57 AUDIO
    TITLE "0:"
    INDEX 01 00:48:10
  TRACK 58 AUDIO
    TITLE "17:cjc029_6097"
    INDEX 01 00:48:73
  TRACK 59 AUDIO
    TITLE "0:"
    INDEX 01 00:50:56
  TRACK 60 AUDIO
    TITLE "16:cjc029_6098"
    INDEX 01 00:50:62
  TRACK 61 AUDIO
    TITLE "0:"
    INDEX 01 00:51:67
  TRACK 62 AUDIO
    TITLE "17:cjc029_6099"
    INDEX 01 00:52:51
  TRACK 63 AUDIO
    TITLE "0:"
    INDEX 01 00:55:03
  TRACK 64 AUDIO
    TITLE "16:cjc029_6100"
    INDEX 01 00:55:08
  TRACK 65 AUDIO
    TITLE "0:"
    INDEX 01 00:56:20
